Coordinates
version=1
nRows=7
nColumns=33
inDegrees=yes

Units are S.I. units (second, meters, Newtons, ...)
Angles are in degrees.

endheader
time	ground_thorax_rot_x	ground_thorax_rot_y	ground_thorax_rot_z	ground_thorax_tx	ground_thorax_ty	ground_thorax_tz	clav_prot_r	clav_elev_r	scapula_abduction_r	scapula_elevation_r	scapula_upward_rot_r	scapula_winging_r	shoulder_elv_r	plane_of_elev_r	axial_rot_r	elbow_flexion_r	pro_sup_r	wrist_flex_r	wrist_dev_r	clav_prot_l	clav_elev_l	scapula_abduction_l	scapula_elevation_l	scapula_upward_rot_l	scapula_winging_l	shoulder_elv_l	plane_of_elev_l	axial_rot_l	elbow_flexion_l	pro_sup_l	wrist_flex_l	wrist_dev_l
      7.44000000	    -32.85438317	    -29.13432777	     34.68509733	    -56.60783988	    847.17440524	    -52.86658620	     45.00000000	    -45.00000000	     41.18730340	    -45.00000000	    -27.12683692	    350.38396309	   4179.74898751	    -90.00000000	    -18.19937175	   3937.21650342	     98.26039495	     14.12547187	     11.85175372	     -0.18008945	     33.15423068	    -33.12961857	    -45.00000000	    -45.00000000	   4409.31401752	  -5126.21835262	    131.46943115	    -97.53490108	   1790.46866552	    401.27735597	     14.91628104	    -20.69354407
      7.45000000	    -32.59653270	    -29.40089063	     35.03743466	    -54.50799402	    846.79660284	    -52.84854047	     45.00000000	    -45.00000000	     41.40714886	    -45.00000000	    -27.10208023	    350.44295009	   4179.70442904	    -90.00000000	    -18.14399087	   3937.26055700	     98.59123099	     14.04699176	     11.82647237	     -0.19461110	     33.13195902	    -33.06169173	    -45.00000000	    -45.00000000	   4409.14364928	  -5126.17974278	    131.39207400	    -97.18868064	   1790.40194900	    401.31902113	     15.04379468	    -20.51962252
      7.46000000	    -32.43109657	    -29.67863479	     35.36306096	    -52.36601411	    846.39002855	    -52.81930509	     45.00000000	    -45.00000000	     41.44179633	    -45.00000000	    -26.97135208	    350.53961482	   4179.71490564	    -90.00000000	    -18.15018709	   3937.23486170	     98.96034521	     14.00976321	     11.81271040	     -0.16278237	     33.11743807	    -33.06324371	    -45.00000000	    -45.00000000	   4409.06078271	  -5126.11951096	    131.35487852	    -96.81859203	   1790.38792916	    401.35241851	     15.11601546	    -20.33300009
      7.47000000	    -32.27447906	    -29.94309257	     35.69566662	    -50.18509751	    845.94962419	    -52.77646913	     45.00000000	    -45.00000000	     41.50419352	    -45.00000000	    -26.82860921	    350.60276021	   4179.72368416	    -90.00000000	    -18.16201453	   3937.19761627	     99.38370224	     13.96090534	     11.80296154	     -0.09571427	     33.11030695	    -33.10556401	    -45.00000000	    -45.00000000	   4408.98751322	  -5126.05892057	    131.32579944	    -96.48806210	   1790.37790101	    401.39092047	     15.19013559	    -20.15932425
      7.48000000	    -32.11211489	    -30.23405055	     36.02531466	    -47.96934059	    845.47177250	    -52.71758600	     45.00000000	    -45.00000000	     41.56503318	    -45.00000000	    -26.70948755	    350.70983810	   4179.70049663	    -90.00000000	    -18.15513592	   3937.18356612	     99.84667664	     13.90282234	     11.78142697	     -0.04241529	     33.09979823	    -33.12849447	    -45.00000000	    -45.00000000	   4408.93204982	  -5126.03012433	    131.29848788	    -96.19416345	   1790.38633184	    401.43512415	     15.24399556	    -19.99621730
      7.49000000	    -31.90176770	    -30.56735733	     36.46280586	    -45.71950201	    844.95306078	    -52.64062466	     45.00000000	    -45.00000000	     41.60733801	    -45.00000000	    -26.66448520	    350.80157274	   4179.68854122	    -90.00000000	    -18.16679423	   3937.22440104	    100.31444586	     13.86762157	     11.73087373	     -0.17238315	     33.05549020	    -33.11896297	    -45.00000000	    -45.00000000	   4408.90948697	  -5125.98894934	    131.24033205	    -95.89477224	   1790.35313824	    401.50178621	     15.24558063	    -19.79741598
      7.50000000	    -31.69136531	    -30.89366014	     36.85673858	    -43.44201019	    844.39610280	    -52.54350368	     45.00000000	    -45.00000000	     41.65775960	    -45.00000000	    -26.57457262	    350.88931164	   4179.66092972	    -90.00000000	    -18.17070975	   3937.21410435	    100.82436426	     13.80367633	     11.70305799	     -0.16082724	     33.03310769	    -33.10095300	    -45.00000000	    -45.00000000	   4408.84846398	  -5125.96306583	    131.21353133	    -95.70614069	   1790.34379831	    401.58065768	     15.27741594	    -19.64214469
